<svg width="50" height="50" viewBox="0 0 50 50" fill="none" xmlns="http://www.w3.org/2000/svg">
<ellipse cx="25" cy="25" rx="22.3684" ry="22.7273" fill="white"/>
<path d="M48.5 25C48.5 37.9787 37.9787 48.5 25 48.5C12.0213 48.5 1.5 37.9787 1.5 25C1.5 12.0213 12.0213 1.5 25 1.5C37.9787 1.5 48.5 12.0213 48.5 25Z" stroke="#F56476" stroke-width="3"/>
<path d="M44.2368 25C44.2368 36.0376 35.6075 44.9546 25 44.9546C14.3925 44.9546 5.76315 36.0376 5.76315 25C5.76315 13.9624 14.3925 5.04547 25 5.04547C35.6075 5.04547 44.2368 13.9624 44.2368 25Z" stroke="#F56476"/>
<path d="M25.104 24.76C24.816 24.76 24.608 24.696 24.48 24.568C24.352 24.44 24.152 24.168 23.88 23.752L20.952 19.288C20.856 19.128 20.744 19.024 20.616 18.976C20.488 18.912 20.36 18.88 20.232 18.88H19.824C19.616 18.88 19.456 18.944 19.344 19.072C19.248 19.184 19.2 19.368 19.2 19.624V31.84H19.44V19.624C19.44 19.496 19.464 19.384 19.512 19.288C19.56 19.176 19.664 19.12 19.824 19.12H20.184C20.296 19.12 20.392 19.136 20.472 19.168C20.568 19.2 20.664 19.296 20.76 19.456L23.688 23.872C23.976 24.304 24.192 24.6 24.336 24.76C24.496 24.92 24.752 25 25.104 25C25.456 25 25.704 24.92 25.848 24.76C26.008 24.6 26.232 24.304 26.52 23.872L29.448 19.456C29.544 19.296 29.632 19.2 29.712 19.168C29.792 19.136 29.888 19.12 30 19.12H30.36C30.52 19.12 30.624 19.176 30.672 19.288C30.736 19.384 30.768 19.496 30.768 19.624V31.84H31.008V19.624C31.008 19.368 30.952 19.184 30.84 19.072C30.744 18.944 30.584 18.88 30.36 18.88H29.952C29.824 18.88 29.696 18.912 29.568 18.976C29.456 19.024 29.352 19.128 29.256 19.288L26.328 23.752C26.056 24.168 25.856 24.44 25.728 24.568C25.6 24.696 25.392 24.76 25.104 24.76ZM21.096 34H17.52C17.216 34 16.992 33.936 16.848 33.808C16.72 33.664 16.656 33.44 16.656 33.136V17.584C16.656 17.28 16.72 17.064 16.848 16.936C16.992 16.792 17.216 16.72 17.52 16.72H21.384C21.64 16.72 21.848 16.776 22.008 16.888C22.184 17 22.344 17.184 22.488 17.44L24.648 21.352C24.728 21.496 24.792 21.6 24.84 21.664C24.904 21.728 24.984 21.76 25.08 21.76H25.296C25.392 21.76 25.464 21.728 25.512 21.664C25.576 21.6 25.648 21.496 25.728 21.352L27.864 17.44C28.008 17.184 28.16 17 28.32 16.888C28.496 16.776 28.712 16.72 28.968 16.72H32.856C33.16 16.72 33.376 16.792 33.504 16.936C33.648 17.064 33.72 17.28 33.72 17.584V33.136C33.72 33.44 33.648 33.664 33.504 33.808C33.376 33.936 33.16 34 32.856 34H29.16C28.856 34 28.632 33.936 28.488 33.808C28.36 33.664 28.296 33.44 28.296 33.136V24.688L26.88 27.304C26.736 27.576 26.56 27.776 26.352 27.904C26.16 28.016 25.912 28.072 25.608 28.072H24.648C24.344 28.072 24.088 28.016 23.88 27.904C23.688 27.776 23.52 27.576 23.376 27.304L21.96 24.688V33.136C21.96 33.44 21.888 33.664 21.744 33.808C21.616 33.936 21.4 34 21.096 34Z" fill="#2F2F2F"/>
<line x1="25.5" y1="44.3182" x2="25.5" y2="50" stroke="#F56476"/>
<line x1="25.5" y1="1.70474e-08" x2="25.5" y2="5.68182" stroke="#F56476"/>
<path d="M46.8159 12.992L41.4473 15.3409" stroke="#F56476"/>
<path d="M43.362 41.4772L38.3223 38.6363" stroke="#F56476"/>
<path d="M6.74341 41.4772L11.7831 38.6363" stroke="#F56476"/>
<path d="M3.61841 12.992L8.55262 15.3409" stroke="#F56476"/>
</svg>
